<svg width="16" height="16" viewBox="0 0 16 16" fill="none" xmlns="http://www.w3.org/2000/svg">
<g clip-path="url(#clip0_1728_753)">
<path d="M6 0.278298C6.09761 0.396911 6.15741 0.54207 6.17168 0.695021C6.18594 0.847972 6.154 1.00168 6.08 1.1363C5.50186 2.19777 5.19993 3.38759 5.202 4.5963C5.202 8.6173 8.48 11.8733 12.52 11.8733C13.047 11.8733 13.56 11.8183 14.053 11.7133C14.2041 11.6806 14.3615 11.6931 14.5056 11.7493C14.6497 11.8055 14.774 11.9029 14.863 12.0293C14.957 12.1607 15.0049 12.3196 14.9993 12.4811C14.9937 12.6426 14.9349 12.7977 14.832 12.9223C14.0477 13.8857 13.0582 14.662 11.9358 15.1945C10.8134 15.727 9.58632 16.0023 8.344 16.0003C3.734 16.0003 0 12.2863 0 7.7103C0 4.2663 2.114 1.3123 5.124 0.0602985C5.27394 -0.00306965 5.44039 -0.0160757 5.59835 0.0232342C5.75631 0.062544 5.89725 0.152047 6 0.278298V0.278298Z" fill="white"/>
</g>
<defs>
<clipPath id="clip0_1728_753">
<rect width="16" height="16" fill="white"/>
</clipPath>
</defs>
</svg>
