<svg width="124" height="124" viewBox="0 0 124 124" fill="none" xmlns="http://www.w3.org/2000/svg">
<g clip-path="url(#clip0_1_5)">
<path d="M100.75 50.375C100.75 61.4914 97.1414 71.7602 91.0625 80.0914L121.723 110.777C124.751 113.804 124.751 118.72 121.723 121.748C118.696 124.775 113.78 124.775 110.752 121.748L80.0914 91.0625C71.7602 97.1656 61.4914 100.75 50.375 100.75C22.5477 100.75 0 78.2023 0 50.375C0 22.5477 22.5477 0 50.375 0C78.2023 0 100.75 22.5477 100.75 50.375ZM50.375 85.25C69.6289 85.25 85.25 69.6289 85.25 50.375C85.25 31.1211 69.6289 15.5 50.375 15.5C31.1211 15.5 15.5 31.1211 15.5 50.375C15.5 69.6289 31.1211 85.25 50.375 85.25Z" fill="white"/>
</g>
<defs>
<clipPath id="clip0_1_5">
<rect width="124" height="124" fill="white"/>
</clipPath>
</defs>
</svg>
