<svg width="131" height="131" viewBox="0 0 131 131" fill="none" xmlns="http://www.w3.org/2000/svg">
<g clip-path="url(#clip0_1_7)">
<path d="M106.438 53.2188C106.438 64.9627 102.625 75.8111 96.2031 84.6127L128.595 117.03C131.793 120.228 131.793 125.422 128.595 128.621C125.397 131.819 120.203 131.819 117.004 128.621L84.6127 96.2031C75.8111 102.651 64.9627 106.438 53.2188 106.438C23.8205 106.438 0 82.617 0 53.2188C0 23.8205 23.8205 0 53.2188 0C82.617 0 106.438 23.8205 106.438 53.2188ZM53.2188 90.0625C73.5596 90.0625 90.0625 73.5596 90.0625 53.2188C90.0625 32.8779 73.5596 16.375 53.2188 16.375C32.8779 16.375 16.375 32.8779 16.375 53.2188C16.375 73.5596 32.8779 90.0625 53.2188 90.0625Z" fill="black"/>
</g>
<defs>
<clipPath id="clip0_1_7">
<rect width="131" height="131" fill="white"/>
</clipPath>
</defs>
</svg>
